How.I.Met.Your.Mother.S07E15.PROPER.720p.HDTV.x264-ORENJI

Format                                   : Matroska
Format version                           : Version 2
File size                                : 515 MiB
Duration                                 : 20mn 2s
Overall bit rate                         : 3 592 Kbps
Encoded date                             : UTC 2010-02-22 21:41:29
Writing application                      : no_variable_data
Writing library                          : no_variable_data

Video
ID                                       : 2
Format                                   : AVC
Format/Info                              : Advanced Video Codec
Format profile                           : High@L4.1
Format settings, CABAC                   : Yes
Format settings, ReFrames                : 5 frames
Codec ID                                 : V_MPEG4/ISO/AVC
Duration                                 : 20mn 2s
Bit rate                                 : 3 137 Kbps
Width                                    : 1 280 pixels
Height                                   : 720 pixels
Display aspect ratio                     : 16:9
Frame rate                               : 23.976 fps
Color space                              : YUV
Chroma subsampling                       : 4:2:0
Bit depth                                : 8 bits
Scan type                                : Progressive
Bits/(Pixel*Frame)                       : 0.142
Stream size                              : 450 MiB (87%)

Audio
ID                                       : 1
Format                                   : AC-3
Format/Info                              : Audio Coding 3
Mode extension                           : CM (complete main)
Codec ID                                 : A_AC3
Duration                                 : 20mn 2s
Bit rate mode                            : Constant
Bit rate                                 : 384 Kbps
Channel(s)                               : 6 channels
Channel positions                        : Front: L C R, Side: L R, LFE
Sampling rate                            : 48.0 KHz
Bit depth                                : 16 bits
Compression mode                         : Lossy
Stream size                              : 55.1 MiB (11%)
Default                                  : Yes
Forced                                   : No
